<?xml version="1.0" encoding="utf-8"?>
<!-- Generator: Adobe Illustrator 27.2.0, SVG Export Plug-In . SVG Version: 6.00 Build 0)  -->
<svg version="1.1" id="Capa_1" xmlns="http://www.w3.org/2000/svg" xmlns:xlink="http://www.w3.org/1999/xlink" x="0px" y="0px"
	 viewBox="0 0 200 200" style="enable-background:new 0 0 200 200;" xml:space="preserve">
<style type="text/css">
	.st0{fill:none;stroke:#FFFFFF;stroke-width:4;stroke-linecap:round;stroke-linejoin:round;}
	.st1{fill:none;stroke:#FAB937;stroke-width:4;stroke-linecap:round;stroke-linejoin:round;}
</style>
<g>
	<path class="st0" d="M86.17,148.71h44.22c6.63,0,12.01-5.38,12.01-12.01V57.49c0-6.63-5.38-12.01-12.01-12.01H69.12
		c-6.63,0-12.01,5.38-12.01,12.01v51.67"/>
	<line class="st0" x1="122.87" y1="97.1" x2="97.54" y2="97.1"/>
	<line class="st0" x1="76.65" y1="71.29" x2="122.87" y2="71.29"/>
	<line class="st0" x1="122.87" y1="122.91" x2="110.08" y2="122.91"/>
	<circle class="st1" cx="68.05" cy="131.58" r="24.94"/>
	<g>
		<path class="st1" d="M71.49,121.11h-3.43c-2.89,0-5.23,2.34-5.23,5.23s2.34,5.23,5.23,5.23s5.23,2.34,5.23,5.23
			c0,2.89-2.34,5.23-5.23,5.23h-3.43"/>
		<line class="st1" x1="68.06" y1="143.99" x2="68.06" y2="142.03"/>
		<line class="st1" x1="68.06" y1="121.11" x2="68.06" y2="119.16"/>
	</g>
</g>
</svg>
