<?xml version="1.0" encoding="utf-8"?>
<!-- Generator: Adobe Illustrator 27.2.0, SVG Export Plug-In . SVG Version: 6.00 Build 0)  -->
<svg version="1.1" id="Capa_1" xmlns="http://www.w3.org/2000/svg" xmlns:xlink="http://www.w3.org/1999/xlink" x="0px" y="0px"
	 viewBox="0 0 200 200" style="enable-background:new 0 0 200 200;" xml:space="preserve">
<style type="text/css">
	.st0{fill:none;stroke:#FFFFFF;stroke-width:4;stroke-linecap:round;stroke-linejoin:round;}
	.st1{fill:none;stroke:#FAB937;stroke-width:4;stroke-linecap:round;stroke-linejoin:round;}
</style>
<g>
	<path class="st0" d="M93.26,111.63l-22.03,0c-3.84,0-7.58-1.22-10.69-3.48L33.41,88.36c-5.14-3.75-5.72-11.2-1.22-15.69l0,0
		c3.14-3.14,7.94-3.93,11.93-1.96l17.4,8.63c2.51,1.24,5.26,1.89,8.06,1.89l85.61,0c4.68,0,8.68,2.92,10.29,7.03l4.21,8.25
		c3.33,6.52-0.91,14.6-8.22,15.09c-0.25,0.02-0.5,0.03-0.76,0.03l-37.32,0"/>
	<polyline class="st1" points="98.44,103.09 74.36,142.78 97.37,142.78 131.24,102.22 	"/>
	<polyline class="st0" points="88.63,81.23 74.36,57.22 97.37,57.22 117,81.23 	"/>
	<line class="st0" x1="148.35" y1="94.18" x2="149.64" y2="94.18"/>
</g>
</svg>
