<?xml version="1.0" encoding="utf-8"?>
<!-- Generator: Adobe Illustrator 27.2.0, SVG Export Plug-In . SVG Version: 6.00 Build 0)  -->
<svg version="1.1" id="Capa_1" xmlns="http://www.w3.org/2000/svg" xmlns:xlink="http://www.w3.org/1999/xlink" x="0px" y="0px"
	 viewBox="0 0 200 200" style="enable-background:new 0 0 200 200;" xml:space="preserve">
<style type="text/css">
	.st0{fill:none;stroke:#FFFFFF;stroke-width:4;stroke-linecap:round;stroke-linejoin:round;}
	.st1{fill:none;stroke:#FAB937;stroke-width:4;stroke-linecap:round;stroke-linejoin:round;}
</style>
<g>
	<g>
		<polyline class="st0" points="38.55,100.81 100,52.02 161.45,100.81 		"/>
		<polyline class="st0" points="121.15,68.82 121.15,52.02 137.24,52.02 137.24,81.59 		"/>
	</g>
	<path class="st1" d="M75.22,109.05c0-13.69,11.1-24.78,24.78-24.78s24.78,11.1,24.78,24.78"/>
	<g>
		<path class="st1" d="M104.38,105.86H100c-3.21,0-5.82,2.6-5.82,5.82c0,3.21,2.6,5.82,5.82,5.82s5.82,2.6,5.82,5.82
			c0,3.21-2.6,5.82-5.82,5.82h-4.38"/>
		<line class="st1" x1="100" y1="133.92" x2="100" y2="129.12"/>
		<line class="st1" x1="100" y1="105.86" x2="100" y2="100.81"/>
	</g>
	<g>
		<line class="st1" x1="75.22" y1="109.05" x2="75.22" y2="147.98"/>
		<line class="st1" x1="124.78" y1="109.05" x2="124.78" y2="147.98"/>
	</g>
	<polyline class="st0" points="143.73,86.75 143.73,147.98 56.27,147.98 56.27,86.75 	"/>
</g>
</svg>
