<?xml version="1.0" encoding="utf-8"?>
<!-- Generator: Adobe Illustrator 27.2.0, SVG Export Plug-In . SVG Version: 6.00 Build 0)  -->
<svg version="1.1" id="Capa_1" xmlns="http://www.w3.org/2000/svg" xmlns:xlink="http://www.w3.org/1999/xlink" x="0px" y="0px"
	 viewBox="0 0 200 200" style="enable-background:new 0 0 200 200;" xml:space="preserve">
<style type="text/css">
	.st0{fill:none;stroke:#FFFFFF;stroke-width:4;stroke-linecap:round;stroke-linejoin:round;}
	.st1{fill:none;stroke:#FAB937;stroke-width:4;stroke-linecap:round;stroke-linejoin:round;}
</style>
<g>
	<path class="st0" d="M53.02,69.49l7.18,0c2.32,0,4.6-0.61,6.63-1.75c11.27-6.36,22.23-11.98,30.52-11.34"/>
	<path class="st0" d="M53.02,120.28h8.04l24.42,19.08c5.72,4.47,13.41,5.53,20.14,2.8c14.92-6.04,28.26-12.22,36.04-18.88"/>
	<path class="st0" d="M48.95,127.8H35.13c-2.24,0-4.06-1.82-4.06-4.06V66.98c0-2.24,1.82-4.06,4.06-4.06h13.82
		c2.24,0,4.06,1.82,4.06,4.06v56.76C53.02,125.98,51.2,127.8,48.95,127.8z"/>
	<path class="st1" d="M146.98,120.44l-4.32,2.24c-2.18,1.13-4.86,0.62-6.46-1.24l-34.68-40.19c-1.66-1.92-4.53-2.23-6.56-0.7
		l-10.82,8.15c-5.67,4.27-13.72,3.25-18.14-2.31l0,0c-2.01-2.52-1.61-6.18,0.89-8.22l22.44-18.25c4.63-3.77,11-4.59,16.44-2.14
		l30.24,13.64c0.82,0.37,1.72,0.56,2.62,0.56h8.34"/>
	<path class="st1" d="M164.87,127.8h-13.82c-2.24,0-4.06-1.82-4.06-4.06V70.38c0-2.24,1.82-4.06,4.06-4.06h13.82
		c2.24,0,4.06,1.82,4.06,4.06v53.36C168.93,125.98,167.11,127.8,164.87,127.8z"/>
</g>
</svg>
