<?xml version="1.0" encoding="utf-8"?>
<!-- Generator: Adobe Illustrator 27.2.0, SVG Export Plug-In . SVG Version: 6.00 Build 0)  -->
<svg version="1.1" id="Capa_1" xmlns="http://www.w3.org/2000/svg" xmlns:xlink="http://www.w3.org/1999/xlink" x="0px" y="0px"
	 viewBox="0 0 200 200" style="enable-background:new 0 0 200 200;" xml:space="preserve">
<style type="text/css">
	.st0{fill:none;stroke:#FFFFFF;stroke-width:4;stroke-linecap:round;stroke-linejoin:round;}
	.st1{fill:none;stroke:#FAB937;stroke-width:4;stroke-linecap:round;stroke-linejoin:round;}
</style>
<g>
	<g>
		<path class="st0" d="M96.64,132.33L57.86,114c-1.99-0.94-4.12-1.4-6.24-1.4c-3.31,0-6.58,1.12-9.24,3.29
			c-1.4,1.15-1.35,3.31,0.1,4.38l42.44,31.4c5.17,3.82,11.63,5.42,17.98,4.45l31.26-4.79c5.39-0.82,10.84,0.91,14.75,4.7l3.4,3.29"
			/>
		<path class="st0" d="M166.64,137.06l-28.71-16.2c-5.51-3.11-12.07-3.77-18.1-1.83l-23.02,7.43c-1.4,0.45-2.12,2.01-1.56,3.37v0
			c2.02,4.89,6.9,7.98,12.18,7.74l14.22-0.66"/>
	</g>
	<path class="st1" d="M130.55,81.44l-0.23,0.23l-23.83,23.84c-3.66,3.66-9.6,3.66-13.26,0L69.41,81.68l-0.23-0.24
		c-8.41-8.41-8.41-22.05,0-30.46c4.21-4.2,9.72-6.3,15.23-6.3c5.51,0,11.02,2.1,15.23,6.3l0.23,0.23l0.23-0.23
		c4.2-4.2,9.72-6.3,15.22-6.3c5.52,0,11.02,2.1,15.23,6.3C138.96,59.39,138.96,73.03,130.55,81.44z"/>
</g>
</svg>
