<?xml version="1.0" encoding="utf-8"?>
<!-- Generator: Adobe Illustrator 27.2.0, SVG Export Plug-In . SVG Version: 6.00 Build 0)  -->
<svg version="1.1" id="Capa_1" xmlns="http://www.w3.org/2000/svg" xmlns:xlink="http://www.w3.org/1999/xlink" x="0px" y="0px"
	 viewBox="0 0 200 200" style="enable-background:new 0 0 200 200;" xml:space="preserve">
<style type="text/css">
	.st0{fill:#FFFFFF;}
	.st1{fill:#212121;}
</style>
<g id="XMLID_00000084516551326254395330000004776241196845496496_">
	<path id="XMLID_00000150814090620471611910000017738138052467862160_" class="st0" d="M136.77,180H63.23
		C39.35,180,20,160.65,20,136.77V63.23C20,39.35,39.35,20,63.23,20h73.55C160.65,20,180,39.35,180,63.23v73.55
		C180,160.65,160.65,180,136.77,180z"/>
	<path id="XMLID_00000031889724654511378360000016073987896822460344_" class="st1" d="M89.45,141.85h16.86V99.64h11.76l1.25-14.13
		H106.3c0,0,0-5.28,0-8.05c0-3.33,0.67-4.65,3.89-4.65c2.59,0,9.12,0,9.12,0V58.15c0,0-9.62,0-11.67,0c-12.54,0-18.2,5.52-18.2,16.1
		c0,9.21,0,11.27,0,11.27h-8.77v14.31h8.77V141.85z"/>
</g>
</svg>
