<?xml version="1.0" encoding="utf-8"?>
<!-- Generator: Adobe Illustrator 27.2.0, SVG Export Plug-In . SVG Version: 6.00 Build 0)  -->
<svg version="1.1" id="Capa_1" xmlns="http://www.w3.org/2000/svg" xmlns:xlink="http://www.w3.org/1999/xlink" x="0px" y="0px"
	 viewBox="0 0 200 200" style="enable-background:new 0 0 200 200;" xml:space="preserve">
<style type="text/css">
	.st0{fill:#FFFFFF;}
	.st1{fill:#212121;}
</style>
<g id="XMLID_00000182487017370207258770000003404895425828884358_">
	<path id="XMLID_00000021103932374159242980000005839260434682043576_" class="st0" d="M136.77,180H63.23
		C39.35,180,20,160.65,20,136.77V63.23C20,39.35,39.35,20,63.23,20h73.55C160.65,20,180,39.35,180,63.23v73.55
		C180,160.65,160.65,180,136.77,180z"/>
	<g id="XMLID_00000025404247252309380070000006303632951555828118_">
		<path id="XMLID_00000068645488565805038940000004995006551612121985_" class="st1" d="M100,68.88c10.14,0,11.34,0.04,15.34,0.22
			c3.7,0.17,5.71,0.79,7.05,1.31c1.77,0.69,3.04,1.51,4.36,2.84c1.33,1.33,2.15,2.59,2.84,4.37c0.52,1.34,1.14,3.35,1.31,7.05
			c0.18,4,0.22,5.2,0.22,15.34s-0.04,11.34-0.22,15.34c-0.17,3.7-0.79,5.71-1.31,7.05c-0.69,1.77-1.51,3.04-2.84,4.37
			c-1.33,1.33-2.59,2.15-4.36,2.84c-1.34,0.52-3.35,1.14-7.05,1.31c-4,0.18-5.2,0.22-15.34,0.22c-10.14,0-11.34-0.04-15.34-0.22
			c-3.7-0.17-5.71-0.79-7.05-1.31c-1.77-0.69-3.04-1.51-4.37-2.84c-1.33-1.33-2.15-2.59-2.84-4.37c-0.52-1.34-1.14-3.35-1.31-7.05
			c-0.18-4-0.22-5.2-0.22-15.34s0.04-11.34,0.22-15.34c0.17-3.7,0.79-5.71,1.31-7.05c0.69-1.77,1.51-3.04,2.84-4.37
			c1.33-1.33,2.59-2.15,4.37-2.84c1.34-0.52,3.35-1.14,7.05-1.31C88.66,68.91,89.86,68.88,100,68.88 M100,62.03
			c-10.31,0-11.6,0.04-15.65,0.23c-4.04,0.18-6.8,0.83-9.22,1.77c-2.5,0.97-4.61,2.27-6.72,4.38c-2.11,2.11-3.41,4.23-4.38,6.72
			c-0.94,2.41-1.58,5.17-1.76,9.22c-0.19,4.05-0.23,5.34-0.23,15.65c0,10.31,0.04,11.6,0.23,15.65c0.18,4.04,0.83,6.8,1.76,9.22
			c0.97,2.5,2.27,4.61,4.38,6.72c2.11,2.11,4.23,3.41,6.72,4.38c2.41,0.94,5.17,1.58,9.22,1.76c4.05,0.18,5.34,0.23,15.65,0.23
			c10.31,0,11.6-0.04,15.65-0.23c4.04-0.18,6.8-0.83,9.22-1.76c2.5-0.97,4.61-2.27,6.72-4.38c2.11-2.11,3.41-4.23,4.38-6.72
			c0.94-2.42,1.58-5.17,1.76-9.22c0.18-4.05,0.23-5.34,0.23-15.65c0-10.31-0.04-11.6-0.23-15.65c-0.18-4.04-0.83-6.8-1.76-9.22
			c-0.97-2.5-2.27-4.61-4.38-6.72c-2.11-2.11-4.23-3.41-6.72-4.38c-2.41-0.94-5.17-1.58-9.22-1.77
			C111.6,62.08,110.31,62.03,100,62.03"/>
		<path id="XMLID_00000161606996615188743960000007016823664956631731_" class="st1" d="M100,80.51c-10.77,0-19.5,8.73-19.5,19.5
			c0,10.77,8.73,19.5,19.5,19.5c10.77,0,19.5-8.73,19.5-19.5C119.5,89.23,110.77,80.51,100,80.51 M100,112.66
			c-6.99,0-12.65-5.67-12.65-12.65c0-6.99,5.67-12.66,12.65-12.66s12.65,5.67,12.65,12.66C112.65,106.99,106.99,112.66,100,112.66"
			/>
		<path id="XMLID_00000092433669398954055290000005295075705457793961_" class="st1" d="M124.82,79.73c0,2.52-2.04,4.56-4.56,4.56
			c-2.52,0-4.56-2.04-4.56-4.56c0-2.52,2.04-4.56,4.56-4.56C122.78,75.18,124.82,77.22,124.82,79.73"/>
	</g>
</g>
</svg>
