<?xml version="1.0" encoding="utf-8"?>
<!-- Generator: Adobe Illustrator 27.2.0, SVG Export Plug-In . SVG Version: 6.00 Build 0)  -->
<svg version="1.1" id="Capa_1" xmlns="http://www.w3.org/2000/svg" xmlns:xlink="http://www.w3.org/1999/xlink" x="0px" y="0px"
	 viewBox="0 0 200 200" style="enable-background:new 0 0 200 200;" xml:space="preserve">
<style type="text/css">
	.st0{fill:none;stroke:#FFFFFF;stroke-width:4;stroke-linecap:round;stroke-linejoin:round;}
	.st1{fill:none;stroke:#FAB937;stroke-width:4;stroke-linecap:round;stroke-linejoin:round;}
</style>
<g>
	<path class="st0" d="M114.62,143.92H70.85c-6.15,0-11.14-4.99-11.14-11.14V55.83c0-6.15,4.99-11.14,11.14-11.14h58.36
		c6.15,0,11.14,4.99,11.14,11.14v39.77"/>
	<g>
		<path class="st1" d="M137.08,91.86L137.08,91.86c1.43,3.61,5.39,5.52,9.1,4.38l0,0c6.45-1.98,11.99,4.97,8.63,10.82v0
			c-1.93,3.37-0.96,7.65,2.25,9.84l0,0c5.57,3.81,3.59,12.47-3.08,13.49h0c-3.84,0.59-6.58,4.02-6.3,7.89v0
			c0.49,6.73-7.51,10.58-12.47,6l0,0c-2.85-2.63-7.25-2.63-10.1,0l0,0c-4.96,4.58-12.96,0.73-12.47-6l0,0
			c0.28-3.87-2.46-7.31-6.3-7.89h0c-6.67-1.02-8.65-9.68-3.08-13.49l0,0c3.2-2.19,4.18-6.48,2.25-9.84l0,0
			c-3.36-5.85,2.18-12.8,8.63-10.82l0,0c3.71,1.14,7.67-0.77,9.1-4.38l0,0C125.72,85.58,134.6,85.58,137.08,91.86z"/>
		<polyline class="st1" points="141.53,146.17 141.53,163.31 130.16,157.35 118.79,163.31 118.79,146.17 		"/>
		<circle class="st1" cx="130.16" cy="118.7" r="8.95"/>
	</g>
	<line class="st0" x1="84.43" y1="70.03" x2="115.63" y2="70.03"/>
</g>
</svg>
