<?xml version="1.0" encoding="utf-8"?>
<!-- Generator: Adobe Illustrator 27.2.0, SVG Export Plug-In . SVG Version: 6.00 Build 0)  -->
<svg version="1.1" id="Capa_1" xmlns="http://www.w3.org/2000/svg" xmlns:xlink="http://www.w3.org/1999/xlink" x="0px" y="0px"
	 viewBox="0 0 200 200" style="enable-background:new 0 0 200 200;" xml:space="preserve">
<style type="text/css">
	.st0{fill:#FFFFFF;}
	.st1{fill:#212121;}
</style>
<g id="XMLID_00000118382515630866530810000003055584140098486174_">
	<path id="XMLID_00000006696408284327247070000017882607689918650540_" class="st0" d="M136.77,180H63.23
		C39.35,180,20,160.65,20,136.77V63.23C20,39.35,39.35,20,63.23,20h73.55C160.65,20,180,39.35,180,63.23v73.55
		C180,160.65,160.65,180,136.77,180z"/>
	<g id="XMLID_00000049223130432128577860000003048640750413033384_">
		<g id="XMLID_00000013151476872072050320000000596990919227348614_">
			
				<rect id="XMLID_00000093899556845116211850000013277389113385439632_" x="68.6" y="84.57" class="st1" width="14.33" height="46.29"/>
			<path id="XMLID_00000094620302454724623780000013190045080138138785_" class="st1" d="M75.7,78.5c4.68,0,8.47-3.83,8.47-8.54
				s-3.79-8.54-8.47-8.54c-4.68,0-8.47,3.82-8.47,8.54S71.02,78.5,75.7,78.5z"/>
		</g>
		<path id="XMLID_00000163759797558216693560000014000458269245266822_" class="st1" d="M105.84,106.56c0-6.51,3-10.39,8.73-10.39
			c5.27,0,7.8,3.72,7.8,10.39c0,6.67,0,24.3,0,24.3h14.26c0,0,0-16.91,0-29.31c0-12.4-7.03-18.4-16.84-18.4
			c-9.82,0-13.95,7.65-13.95,7.65v-6.24H92.09v46.29h13.75C105.84,130.86,105.84,113.69,105.84,106.56z"/>
	</g>
</g>
</svg>
