<?xml version="1.0" encoding="utf-8"?>
<!-- Generator: Adobe Illustrator 27.2.0, SVG Export Plug-In . SVG Version: 6.00 Build 0)  -->
<svg version="1.1" id="Capa_1" xmlns="http://www.w3.org/2000/svg" xmlns:xlink="http://www.w3.org/1999/xlink" x="0px" y="0px"
	 viewBox="0 0 200 200" style="enable-background:new 0 0 200 200;" xml:space="preserve">
<style type="text/css">
	.st0{fill:none;stroke:#FFFFFF;stroke-width:4;stroke-linecap:round;stroke-linejoin:round;}
	.st1{fill:none;stroke:#FAB937;stroke-width:4;stroke-linecap:round;stroke-linejoin:round;}
</style>
<g>
	<g>
		<g>
			<g>
				<path class="st0" d="M142.3,108.27l5.69-25.3c0.82-3.61,3.85-6.28,7.53-6.63c2.65-0.25,5.11,0.74,6.85,2.47
					c1.51,1.51,2.46,3.6,2.49,5.92l0.36,28.08c0.09,6.41-2.43,12.58-6.96,17.11l-23.5,23.5"/>
				<path class="st0" d="M109.15,147.66c-2.85-19.42,7.47-22.57,17.22-32.32l6.17-6.17c1.47-1.47,3.39-2.2,5.31-2.2
					c1.93-0.01,3.86,0.73,5.33,2.2c2.93,2.93,2.93,7.71,0,10.65l-12.6,12.6"/>
			</g>
		</g>
		<g>
			<g>
				<path class="st0" d="M65.24,153.43l-23.5-23.5c-4.53-4.53-7.05-10.7-6.96-17.11l0.36-28.08c0.03-2.32,0.99-4.42,2.49-5.92
					c1.73-1.73,4.19-2.72,6.85-2.47c3.68,0.34,6.71,3.02,7.53,6.63l5.69,25.3"/>
				<path class="st0" d="M69.41,132.41l-12.6-12.6c-2.93-2.93-2.93-7.71,0-10.65c1.48-1.48,3.4-2.21,5.33-2.2
					c1.92,0,3.85,0.74,5.31,2.2l6.17,6.17c9.75,9.75,20.07,12.9,17.22,32.32"/>
			</g>
		</g>
	</g>
	<path class="st1" d="M129.57,83.99l-0.22,0.22l-22.96,22.97c-3.53,3.53-9.25,3.53-12.78,0L70.66,84.22l-0.23-0.23
		c-8.1-8.1-8.1-21.24,0-29.35c4.06-4.05,9.37-6.07,14.68-6.07c5.31,0,10.62,2.03,14.68,6.07l0.22,0.22l0.22-0.22
		c4.05-4.05,9.37-6.07,14.67-6.07c5.32,0,10.62,2.03,14.68,6.07C137.67,62.75,137.67,75.89,129.57,83.99z"/>
</g>
</svg>
