<?xml version="1.0" encoding="utf-8"?>
<!-- Generator: Adobe Illustrator 27.2.0, SVG Export Plug-In . SVG Version: 6.00 Build 0)  -->
<svg version="1.1" id="Capa_1" xmlns="http://www.w3.org/2000/svg" xmlns:xlink="http://www.w3.org/1999/xlink" x="0px" y="0px"
	 viewBox="0 0 200 200" style="enable-background:new 0 0 200 200;" xml:space="preserve">
<style type="text/css">
	.st0{fill:none;stroke:#FFFFFF;stroke-width:4;stroke-linecap:round;stroke-linejoin:round;}
	.st1{fill:none;stroke:#FAB937;stroke-width:4;stroke-linecap:round;stroke-linejoin:round;}
</style>
<g>
	<path class="st0" d="M139.52,112.36v25.37c0,6.94-5.63,12.57-12.57,12.57H72.31c-6.94,0-12.57-5.63-12.57-12.57V72.64
		c0-2.41,0.96-4.72,2.66-6.42l13.87-13.86c1.7-1.7,4.01-2.66,6.42-2.66h44.26c6.94,0,12.57,5.63,12.57,12.57v22.77"/>
	<path class="st1" d="M124.97,126.92l-18.3,4.64l4.64-18.3l41.97-41.97c3.77-3.77,9.89-3.77,13.66,0l0,0
		c3.77,3.77,3.77,9.89,0,13.66L124.97,126.92z"/>
	<line class="st0" x1="78.89" y1="78.3" x2="120.38" y2="78.3"/>
	<line class="st0" x1="78.89" y1="98.8" x2="96.95" y2="98.8"/>
	<line class="st0" x1="78.89" y1="119.3" x2="96.95" y2="119.3"/>
</g>
</svg>
