<?xml version="1.0" encoding="utf-8"?>
<!-- Generator: Adobe Illustrator 27.2.0, SVG Export Plug-In . SVG Version: 6.00 Build 0)  -->
<svg version="1.1" id="Capa_1" xmlns="http://www.w3.org/2000/svg" xmlns:xlink="http://www.w3.org/1999/xlink" x="0px" y="0px"
	 viewBox="0 0 200 200" style="enable-background:new 0 0 200 200;" xml:space="preserve">
<style type="text/css">
	.st0{fill:none;stroke:#FFFFFF;stroke-width:4;stroke-linecap:round;stroke-linejoin:round;stroke-miterlimit:10;}
	.st1{fill:none;stroke:#FAB937;stroke-width:4;stroke-linecap:round;stroke-linejoin:round;}
</style>
<g>
	<line class="st0" x1="135.95" y1="106.7" x2="135.95" y2="131.85"/>
	<path class="st0" d="M64.04,131.85V80.71c0-19.86,16.1-35.96,35.96-35.96h0c19.86,0,35.96,16.1,35.96,35.96v7.69"/>
	<rect x="56.1" y="131.85" class="st0" width="87.79" height="11.69"/>
	<rect x="51.44" y="143.55" class="st0" width="97.11" height="11.69"/>
	<g>
		<line class="st1" x1="99.99" y1="63.26" x2="99.99" y2="91.25"/>
		<line class="st1" x1="89.54" y1="73.08" x2="110.44" y2="73.08"/>
	</g>
	<line class="st1" x1="88.37" y1="106.43" x2="111.61" y2="106.43"/>
	<line class="st1" x1="88.37" y1="116.51" x2="111.61" y2="116.51"/>
	<g>
		<path class="st0" d="M169.1,70.62c-0.57,15.88-26.62,41.39-39.67,35.34C124.53,91.07,157.51,67.83,169.1,70.62z"/>
		<path class="st0" d="M152.6,85.62c-11.81,9.62-24.61,19.31-28.7,28.38"/>
	</g>
</g>
</svg>
