<?xml version="1.0" encoding="utf-8"?>
<!-- Generator: Adobe Illustrator 27.2.0, SVG Export Plug-In . SVG Version: 6.00 Build 0)  -->
<svg version="1.1" id="Capa_1" xmlns="http://www.w3.org/2000/svg" xmlns:xlink="http://www.w3.org/1999/xlink" x="0px" y="0px"
	 viewBox="0 0 200 200" style="enable-background:new 0 0 200 200;" xml:space="preserve">
<style type="text/css">
	.st0{fill:none;stroke:#FFFFFF;stroke-width:4;stroke-linecap:round;stroke-linejoin:round;}
	.st1{fill:none;stroke:#FAB937;stroke-width:4;stroke-linecap:round;stroke-linejoin:round;}
</style>
<g>
	<g>
		<path class="st0" d="M157.55,73.94v-7.69c0-3.37-1.16-6.41-3.04-8.6c-1.88-2.2-4.47-3.56-7.33-3.56
			c-5.73,0-10.38,5.44-10.38,12.16v7.69v67.56"/>
		<path class="st0" d="M116.05,133.82v7.68c0,3.35,1.16,6.41,3.04,8.61c1.88,2.2,4.47,3.56,7.34,3.56c5.72,0,10.37-5.45,10.37-12.17
			V66.24"/>
		<line class="st0" x1="126.43" y1="153.67" x2="71.37" y2="153.67"/>
		<polyline class="st0" points="54.45,133.82 54.45,105.57 54.45,86.92 		"/>
		<path class="st0" d="M116.05,133.82H44.4c0,10.97,7.57,19.85,16.91,19.85h55.07"/>
		<line class="st0" x1="157.55" y1="73.94" x2="136.8" y2="73.94"/>
		<line class="st0" x1="69.79" y1="54.08" x2="147.18" y2="54.08"/>
	</g>
	<g>
		<line class="st0" x1="54.45" y1="105.57" x2="54.45" y2="86.92"/>
		<line class="st0" x1="136.8" y1="82.53" x2="136.8" y2="102.74"/>
		<line class="st0" x1="75.12" y1="133.82" x2="100.82" y2="133.82"/>
	</g>
	<path class="st1" d="M52.02,84.69c10.31,10.31,24.74,14,38,11.08c0.36-1.64,0.73-3.45,1.05-5.38c3.13-18.77-4.24-34.01-29.2-38.18
		c-13.81-2.31-13.04-7.26-20.93-5.53C38.02,59.95,41.7,74.37,52.02,84.69z"/>
	<line class="st1" x1="65.48" y1="71.23" x2="98" y2="103.75"/>
</g>
</svg>
