<?xml version="1.0" encoding="utf-8"?>
<!-- Generator: Adobe Illustrator 27.2.0, SVG Export Plug-In . SVG Version: 6.00 Build 0)  -->
<svg version="1.1" id="Capa_1" xmlns="http://www.w3.org/2000/svg" xmlns:xlink="http://www.w3.org/1999/xlink" x="0px" y="0px"
	 viewBox="0 0 200 200" style="enable-background:new 0 0 200 200;" xml:space="preserve">
<style type="text/css">
	.st0{fill:none;stroke:#FFFFFF;stroke-width:4;stroke-linecap:round;stroke-linejoin:round;}
	.st1{fill:none;stroke:#FAB937;stroke-width:4;stroke-linecap:round;stroke-linejoin:round;}
</style>
<g>
	<line class="st0" x1="112.52" y1="135.16" x2="87.73" y2="135.16"/>
	<path class="st0" d="M57.33,135.16h-5.72c-4.81,0-8.71-3.89-8.71-8.69V98.52c0-1.57,0.64-2.99,1.67-4.02s2.45-1.67,4.02-1.67
		c1.67,0,3.02-1.35,3.02-3.02V60.6c0-5.57,4.52-10.08,10.1-10.08h44.89c3.95,0,7.54,2.29,9.18,5.88l14.67,31.95
		c1.1,2.4,3.5,3.94,6.15,3.94h11.78c4.81,0,8.71,3.88,8.71,8.69v25.49c0,4.8-3.89,8.69-8.71,8.69h-5.47"/>
	<path class="st0" d="M68.74,87.9V69.33c0-1.02,0.82-1.84,1.84-1.84h30.33c0.72,0,1.37,0.42,1.67,1.07l8.51,18.57
		c0.56,1.22-0.33,2.6-1.67,2.6H70.58C69.57,89.74,68.74,88.92,68.74,87.9z"/>
	<line class="st0" x1="87.77" y1="67.5" x2="87.77" y2="89.74"/>
	<circle class="st1" cx="72.53" cy="134.25" r="15.22"/>
	<circle class="st1" cx="127.72" cy="134.25" r="15.22"/>
	<line class="st0" x1="71.58" y1="103.81" x2="79.19" y2="103.81"/>
	<line class="st0" x1="108.69" y1="103.81" x2="116.3" y2="103.81"/>
</g>
</svg>
