<?xml version="1.0" encoding="utf-8"?>
<!-- Generator: Adobe Illustrator 27.2.0, SVG Export Plug-In . SVG Version: 6.00 Build 0)  -->
<svg version="1.1" id="Capa_1" xmlns="http://www.w3.org/2000/svg" xmlns:xlink="http://www.w3.org/1999/xlink" x="0px" y="0px"
	 viewBox="0 0 200 200" style="enable-background:new 0 0 200 200;" xml:space="preserve">
<style type="text/css">
	.st0{fill:#FFFFFF;}
	.st1{fill-rule:evenodd;clip-rule:evenodd;fill:#212121;}
</style>
<g id="XMLID_00000000192645703747340080000003632190260919696052_">
	<path id="XMLID_00000129202354110422198460000006173376590507055772_" class="st0" d="M136.77,180H63.23
		C39.35,180,20,160.65,20,136.77V63.23C20,39.35,39.35,20,63.23,20h73.55C160.65,20,180,39.35,180,63.23v73.55
		C180,160.65,160.65,180,136.77,180z"/>
	<g id="XMLID_00000075855493480753541450000016369116993115442825_">
		<path id="XMLID_00000168826311463231418300000005216592835075681202_" class="st1" d="M137.96,98.08
			c-0.51-20.01-16.99-36.07-37.27-36.07c-20.04,0-36.38,15.69-37.25,35.39c-0.02,0.54-0.03,1.08-0.03,1.62
			c0,7,1.95,13.53,5.34,19.12l-6.72,19.85l20.65-6.56c5.34,2.93,11.49,4.61,18.02,4.61c20.6,0,37.29-16.57,37.29-37.01
			C137.98,98.71,137.98,98.39,137.96,98.08z M100.69,130.13c-6.37,0-12.29-1.89-17.25-5.15l-12.05,3.84l3.91-11.56
			c-3.75-5.13-5.97-11.43-5.97-18.24c0-1.01,0.05-2.02,0.16-3.02c1.54-15.75,14.94-28.09,31.2-28.09
			c16.46,0,29.99,12.66,31.25,28.68c0.07,0.8,0.1,1.61,0.1,2.43C132.04,116.18,117.97,130.13,100.69,130.13z"/>
		<path id="XMLID_00000003095999671039162080000010657940306024622742_" class="st1" d="M117.78,106.49
			c-0.93-0.45-5.41-2.65-6.25-2.95c-0.84-0.31-1.45-0.45-2.06,0.45c-0.61,0.91-2.37,2.95-2.9,3.54c-0.54,0.61-1.06,0.68-1.99,0.23
			c-0.91-0.45-3.86-1.4-7.35-4.5c-2.71-2.39-4.56-5.36-5.08-6.27c-0.52-0.91-0.05-1.4,0.4-1.85c0.42-0.42,0.91-1.06,1.38-1.59
			c0.12-0.16,0.23-0.3,0.33-0.44c0.21-0.33,0.37-0.65,0.58-1.08c0.31-0.61,0.16-1.13-0.07-1.59c-0.23-0.45-2.06-4.92-2.83-6.74
			c-0.75-1.82-1.52-1.5-2.06-1.5c-0.52,0-1.13-0.09-1.75-0.09s-1.61,0.23-2.44,1.13c-0.84,0.91-3.19,3.11-3.19,7.58
			c0,1.05,0.19,2.1,0.47,3.09c0.93,3.19,2.92,5.83,3.26,6.29c0.45,0.59,6.32,10.05,15.61,13.7c9.3,3.61,9.3,2.41,10.98,2.25
			c1.68-0.14,5.41-2.18,6.16-4.31c0.77-2.11,0.77-3.93,0.54-4.31C119.3,107.17,118.69,106.95,117.78,106.49z"/>
	</g>
</g>
</svg>
